<?xml version="1.0" encoding="utf-8"?>
<!-- Generator: Adobe Illustrator 15.1.0, SVG Export Plug-In . SVG Version: 6.00 Build 0)  -->
<!DOCTYPE svg PUBLIC "-//W3C//DTD SVG 1.1//EN" "http://www.w3.org/Graphics/SVG/1.1/DTD/svg11.dtd">
<svg version="1.1" id="Layer_1" xmlns="http://www.w3.org/2000/svg" xmlns:xlink="http://www.w3.org/1999/xlink" x="0px" y="0px"
	 width="113.39px" height="113.39px" viewBox="0 0 113.39 113.39" enable-background="new 0 0 113.39 113.39" xml:space="preserve">
<g>
	<rect y="33.367" fill="#FECC66" width="113.391" height="80.022"/>
	<polygon points="0,23.918 0,0 6.792,0 6.792,9.449 18.308,9.449 18.308,0 25.099,0 25.099,23.918 18.308,23.918 18.308,14.764 
		6.792,14.764 6.792,23.918 	"/>
	<polygon points="28.643,0 51.97,0 51.97,5.315 43.407,5.315 43.407,23.918 36.615,23.918 36.615,5.315 28.643,5.315 	"/>
	<polygon points="55.218,0 55.218,23.918 62.01,23.918 62.01,9.449 69.097,23.918 74.413,23.918 80.317,9.449 80.317,23.918 
		87.108,23.918 87.108,0 78.546,0 71.164,15.059 63.486,0 	"/>
	<polygon points="93.31,0 100.693,0 100.693,18.307 113.391,18.307 113.391,23.918 93.31,23.918 	"/>
</g>
</svg>
