<?xml version="1.0" encoding="utf-8"?>
<!-- Generator: Adobe Illustrator 12.0.0, SVG Export Plug-In . SVG Version: 6.00 Build 51448)  -->
<!DOCTYPE svg PUBLIC "-//W3C//DTD SVG 1.1//EN" "http://www.w3.org/Graphics/SVG/1.1/DTD/svg11.dtd" [
	<!ENTITY ns_svg "http://www.w3.org/2000/svg">
	<!ENTITY ns_xlink "http://www.w3.org/1999/xlink">
]>
<svg  version="1.1" id="Layer_1" xmlns="&ns_svg;" xmlns:xlink="&ns_xlink;" width="439" height="433" viewBox="0 0 439 433"
	 overflow="visible" enable-background="new 0 0 439 433" xml:space="preserve">
<g>
	<polygon fill-rule="evenodd" clip-rule="evenodd" points="15.929,455.41 33.679,455.41 33.679,460.256 21.979,460.256 
		21.979,467.516 32.469,467.516 32.469,472.355 21.979,472.355 21.979,480.828 33.679,480.828 33.679,485.668 15.929,485.668 
		15.929,455.41 	"/>
	<path fill-rule="evenodd" clip-rule="evenodd" d="M39.326,463.479h5.247v2.824l0,0c2.014-2.42,4.436-3.229,7.258-3.229
		c5.246,0,7.666,3.633,7.666,8.473v14.121H53.85v-12.1c0-2.42,0-6.053-4.036-6.053c-4.033,0-4.841,4.436-4.841,7.26v10.893h-5.647
		V463.479L39.326,463.479z"/>
	<path fill-rule="evenodd" clip-rule="evenodd" d="M80.072,482.844L80.072,482.844c-1.614,2.42-4.039,3.229-6.858,3.229
		c-6.857,0-9.277-5.648-9.277-11.701s2.42-11.297,9.277-11.297c2.82,0,4.841,0.809,6.454,2.824h0.404v-12.504h5.647v32.273h-5.647
		V482.844L80.072,482.844z M74.826,481.631c3.631,0,4.841-4.031,4.841-7.26c0-3.223-1.21-6.855-4.841-6.855
		c-4.033,0-4.84,4.031-4.84,6.855C69.986,477.6,71.196,481.631,74.826,481.631L74.826,481.631z"/>
	<polygon fill-rule="evenodd" clip-rule="evenodd" points="91.77,453.395 97.418,453.395 97.418,485.668 91.77,485.668 
		91.77,453.395 	"/>
	<path fill-rule="evenodd" clip-rule="evenodd" d="M121.219,484.057c-2.017,1.207-4.437,2.016-7.664,2.016
		c-7.264,0-11.701-4.441-11.701-11.701c0-6.053,3.631-11.297,10.49-11.297c8.068,0,10.488,5.244,10.488,13.318h-15.328
		c0.401,3.223,2.823,5.238,6.453,5.238c2.826,0,5.246-0.803,7.263-2.016V484.057L121.219,484.057z M117.187,472.355
		c0-2.824-1.214-5.244-4.44-5.244c-3.227,0-4.841,2.016-5.243,5.244H117.187L117.187,472.355z"/>
	<path fill-rule="evenodd" clip-rule="evenodd" d="M140.582,467.92c-2.017-0.404-3.227-0.809-5.244-0.809
		c-1.614,0-3.63,0.404-3.63,2.42c0,3.633,10.085,1.207,10.085,9.281c0,5.244-4.438,7.26-9.28,7.26c-2.017,0-4.437-0.404-6.454-1.213
		l0.403-4.436c1.614,0.809,3.631,1.207,5.65,1.207c1.611,0,3.628-0.398,3.628-2.42c0-4.436-9.681-1.611-9.681-9.275
		c0-4.84,4.034-6.861,8.471-6.861c2.824,0,4.438,0.404,6.456,0.809L140.582,467.92L140.582,467.92z"/>
	<path fill-rule="evenodd" clip-rule="evenodd" d="M159.544,467.92c-2.017-0.404-3.229-0.809-5.246-0.809
		c-1.616,0-3.229,0.404-3.229,2.42c0,3.633,9.681,1.207,9.681,9.281c0,5.244-4.436,7.26-9.278,7.26
		c-2.016,0-4.434-0.404-6.453-1.213l0.403-4.436c2.017,0.809,3.63,1.207,5.647,1.207c1.613,0,3.633-0.398,3.633-2.42
		c0-4.436-9.683-1.611-9.683-9.275c0-4.84,4.033-6.861,8.471-6.861c2.824,0,4.437,0.404,6.454,0.809L159.544,467.92L159.544,467.92z
		"/>
	<path fill-rule="evenodd" clip-rule="evenodd" d="M177.293,463.479h5.244v3.229h0.403c1.21-2.42,3.226-3.633,6.857-3.633
		c6.456,0,9.28,5.244,9.28,11.297s-2.824,11.701-9.683,11.701c-2.42,0-4.437-0.809-6.454-3.229l0,0v11.701h-5.647V463.479
		L177.293,463.479z M182.94,474.371c0,3.229,1.21,7.26,5.244,7.26c3.63,0,4.841-4.031,4.841-7.26c0-2.824-1.211-6.855-4.841-6.855
		C184.552,467.516,182.94,471.148,182.94,474.371L182.94,474.371z"/>
	<path fill-rule="evenodd" clip-rule="evenodd" d="M213.598,463.074c6.456,0,11.7,4.037,11.7,11.701
		c0,6.053-4.438,11.297-11.7,11.297c-7.26,0-11.697-5.244-11.697-11.297C201.901,467.111,207.144,463.074,213.598,463.074
		L213.598,463.074z M213.598,481.631c4.438,0,5.65-4.031,5.65-7.664c0-3.627-2.019-6.451-5.65-6.451
		c-3.628,0-5.648,3.223-5.648,6.451C207.95,477.6,209.163,481.631,213.598,481.631L213.598,481.631z"/>
	<path fill-rule="evenodd" clip-rule="evenodd" d="M242.645,467.92c-1.614-0.404-2.824-0.809-5.244-0.809
		c-1.213,0-3.229,0.404-3.229,2.42c0,3.633,10.087,1.207,10.087,9.281c0,5.244-4.843,7.26-9.278,7.26
		c-2.423,0-4.438-0.404-6.457-1.213l0.404-4.436c1.614,0.809,3.63,1.207,5.648,1.207c1.21,0,3.63-0.398,3.63-2.42
		c0-4.436-10.085-1.611-10.085-9.275c0-4.84,4.035-6.861,8.875-6.861c2.42,0,4.438,0.404,6.05,0.809L242.645,467.92L242.645,467.92z
		"/>
	<path fill-rule="evenodd" clip-rule="evenodd" d="M261.605,467.92c-1.614-0.404-2.824-0.809-4.84-0.809
		c-1.614,0-3.633,0.404-3.633,2.42c0,3.633,10.084,1.207,10.084,9.281c0,5.244-4.436,7.26-9.275,7.26
		c-2.019,0-4.438-0.404-6.457-1.213l0.404-4.436c1.614,0.809,3.63,1.207,5.646,1.207c1.213,0,3.633-0.398,3.633-2.42
		c0-4.436-10.087-1.611-10.087-9.275c0-4.84,4.438-6.861,8.877-6.861c2.42,0,4.438,0.404,6.05,0.809L261.605,467.92L261.605,467.92z
		"/>
	<path fill-rule="evenodd" clip-rule="evenodd" d="M267.655,463.479h6.053v22.189h-6.053V463.479L267.655,463.479z M267.655,453.799
		h6.053v5.648h-6.053V453.799L267.655,453.799z"/>
	<path fill-rule="evenodd" clip-rule="evenodd" d="M279.758,453.395h5.648v12.908l0,0c1.611-2.016,3.63-3.229,6.454-3.229
		c6.858,0,9.278,5.244,9.278,11.297s-2.42,11.701-9.278,11.701c-2.42,0-4.843-0.809-6.454-3.229h-0.401v2.824h-5.247V453.395
		L279.758,453.395z M290.246,481.631c4.034,0,4.843-4.031,4.843-7.26c0-2.824-0.809-6.855-4.438-6.855
		c-4.034,0-5.244,3.633-5.244,6.855C285.406,477.6,286.616,481.631,290.246,481.631L290.246,481.631z"/>
	<path fill-rule="evenodd" clip-rule="evenodd" d="M305.979,463.479h5.648v22.189h-5.648V463.479L305.979,463.479z M305.979,453.799
		h5.648v5.648h-5.648V453.799L305.979,453.799z"/>
	<polygon fill-rule="evenodd" clip-rule="evenodd" points="317.68,453.395 323.328,453.395 323.328,485.668 317.68,485.668 
		317.68,453.395 	"/>
	<path fill-rule="evenodd" clip-rule="evenodd" d="M329.782,463.479h5.646v22.189h-5.646V463.479L329.782,463.479z M329.782,453.799
		h5.646v5.648h-5.646V453.799L329.782,453.799z"/>
	<path fill-rule="evenodd" clip-rule="evenodd" d="M343.496,467.516h-4.438v-4.037h4.438v-4.436l5.648-2.016v6.451h5.244v4.037
		h-5.244v10.488c0,1.611,0.404,3.627,2.824,3.627c0.806,0,2.016-0.398,2.42-0.803v4.84c-0.809,0-2.42,0.404-4.034,0.404
		c-4.438,0-6.858-2.824-6.858-7.26V467.516L343.496,467.516z"/>
	<path fill-rule="evenodd" clip-rule="evenodd" d="M358.423,463.479h5.648v22.189h-5.648V463.479L358.423,463.479z M358.423,453.799
		h5.648v5.648h-5.648V453.799L358.423,453.799z"/>
	<path fill-rule="evenodd" clip-rule="evenodd" d="M387.872,484.057c-2.42,1.207-4.438,2.016-7.667,2.016
		c-7.26,0-11.695-4.441-11.695-11.701c0-6.053,3.63-11.297,10.488-11.297c8.068,0,10.488,5.244,10.488,13.318h-15.334
		c0.407,3.223,2.827,5.238,6.457,5.238c2.42,0,4.843-0.803,7.263-2.016V484.057L387.872,484.057z M383.838,472.355
		c0-2.824-1.21-5.244-4.438-5.244c-3.226,0-4.84,2.016-5.247,5.244H383.838L383.838,472.355z"/>
	<path fill-rule="evenodd" clip-rule="evenodd" d="M406.833,467.92c-1.614-0.404-2.824-0.809-4.843-0.809
		c-1.611,0-3.63,0.404-3.63,2.42c0,3.633,10.087,1.207,10.087,9.281c0,5.244-4.438,7.26-9.281,7.26
		c-2.016,0-4.436-0.404-6.454-1.213l0.404-4.436c1.614,0.809,3.63,1.207,5.646,1.207c1.21,0,3.633-0.398,3.633-2.42
		c0-4.436-10.087-1.611-10.087-9.275c0-4.84,4.438-6.861,8.877-6.861c2.824,0,4.438,0.404,6.05,0.809L406.833,467.92L406.833,467.92
		z"/>
	<polygon fill-rule="evenodd" clip-rule="evenodd" points="412.883,479.615 418.933,479.615 418.933,485.668 412.883,485.668 
		412.883,479.615 	"/>
	<path fill-rule="evenodd" clip-rule="evenodd" d="M433.455,453.799h4.438l2.824,7.664l3.226-7.664h4.037v12.1h-2.824v-8.467l0,0
		l-3.229,8.467h-2.019l-3.226-8.467h-0.404v8.467h-2.824V453.799L433.455,453.799z M424.581,455.814h-3.63v-2.016h10.084v2.016
		h-3.229v10.084h-3.226V455.814L424.581,455.814z"/>
	<polygon fill-rule="evenodd" clip-rule="evenodd" fill="#0083C6" points="0.777,216.777 55.678,161.877 86.4,192.094 
		75.825,202.673 57.188,183.534 47.114,193.607 65.248,212.243 55.174,222.819 36.54,204.185 22.94,217.782 42.08,236.921 
		31.502,246.997 0.777,216.777 	"/>
	<polygon fill-rule="evenodd" clip-rule="evenodd" fill="#0083C6" points="97.483,203.177 111.081,217.281 91.438,258.582 
		91.438,258.582 122.161,227.855 133.745,239.441 78.343,294.342 65.75,281.246 84.89,238.937 54.166,270.166 42.581,258.582 
		97.483,203.177 	"/>
	<polygon fill-rule="evenodd" clip-rule="evenodd" fill="#0083C6" points="234.479,340.174 248.079,353.773 227.932,395.076 
		227.932,395.076 258.655,364.35 270.239,375.934 215.34,430.836 202.246,417.74 221.888,375.43 190.662,406.66 179.076,395.076 
		234.479,340.174 	"/>
	<path fill-rule="evenodd" clip-rule="evenodd" fill="#0083C6" d="M90.43,306.43l54.899-55.406l11.587,11.584
		c13.094,13.096,20.65,23.174,8.562,35.262c-7.557,7.553-13.6,10.072-22.162,4.025l-0.504,0.504
		c6.548,6.551,5.036,11.584-3.021,19.646l-8.563,8.561c-2.52,2.52-5.542,6.047-6.044,10.072l-11.584-11.584
		c0.502-4.031,3.524-7.553,6.045-9.568l9.567-9.568c4.03-4.031,1.006-11.59-1.51-13.6l-2.016-2.52l-23.672,23.672L90.43,306.43
		L90.43,306.43z M133.745,285.781c6.047,6.041,11.584,7.553,17.125,2.01c5.54-5.033,4.03-10.576-2.014-17.121L133.745,285.781
		L133.745,285.781z"/>
	<path fill-rule="evenodd" clip-rule="evenodd" fill="#0083C6" d="M183.61,367.877c-13.096,13.096-25.184,8.057-33.245,0
		c-7.553-7.553-12.592-19.646,0.505-33.24l23.67-23.174c13.099-13.096,25.187-8.561,33.245-0.498
		c7.554,8.057,12.593,20.145-0.505,33.24L183.61,367.877L183.61,367.877z M159.433,349.238c-2.517,2.52-2.517,6.551,0.504,9.574
		c2.518,3.018,7.052,2.514,9.067,0.504l29.716-29.719c2.518-2.016,2.518-6.545-0.504-9.064c-2.518-3.023-7.052-3.023-9.066-0.504
		L159.433,349.238L159.433,349.238z"/>
	<polygon fill-rule="evenodd" clip-rule="evenodd" fill="#0083C6" points="429.4,216.777 373.493,160.868 373.493,160.868 
		260.167,273.693 271.751,285.277 373.493,183.534 406.736,216.777 258.655,364.35 270.239,375.934 429.4,216.777 	"/>
	<polygon fill-rule="evenodd" clip-rule="evenodd" fill="#2D9C5C" points="271.751,285.277 237.5,250.52 350.322,137.7 
		350.322,137.7 294.418,81.291 181.09,194.614 192.674,206.199 294.418,104.458 327.157,137.7 214.332,250.52 214.332,250.52 
		260.167,296.861 271.751,285.277 	"/>
	<polygon fill-rule="evenodd" clip-rule="evenodd" fill="#E92A35" points="192.674,206.199 157.921,171.446 271.25,58.624 
		215.34,2.212 215.34,2.212 55.678,161.877 67.26,172.956 215.34,25.382 248.079,58.624 135.258,171.446 181.09,217.281 
		192.674,206.199 	"/>
	<path fill-rule="evenodd" clip-rule="evenodd" fill="#0083C6" d="M422.349,288.295c-6.548,0-11.584-5.033-11.584-12.088
		c0-7.049,5.036-12.088,11.584-12.088c6.044,0,11.08,5.039,11.08,12.088C433.429,283.262,428.393,288.295,422.349,288.295
		L422.349,288.295z M422.349,291.318c8.06,0,15.111-7.049,15.111-15.111c0-8.561-7.052-15.105-15.111-15.105
		c-8.563,0-15.111,6.545-15.111,15.105C407.237,284.27,413.785,291.318,422.349,291.318L422.349,291.318z M416.305,284.773h3.023
		v-7.559h2.013l4.532,7.559h3.026l-4.535-7.559c3.021-0.504,4.535-2.01,4.535-4.529c0-3.527-2.019-5.039-6.047-5.039h-6.548V284.773
		L416.305,284.773z M419.328,270.166h3.021c1.512,0,3.524,0,3.524,2.016c0,2.52-1.509,2.52-3.524,2.52h-3.021V270.166
		L419.328,270.166z"/>
</g>
</svg>
